<svg width="68" height="83" viewBox="0 0 68 83" fill="none" xmlns="http://www.w3.org/2000/svg">
<g filter="url(#filter0_f_4323_2546)">
<ellipse cx="37.5" cy="70.5" rx="14.5" ry="2.5" fill="black" fill-opacity="0.15"/>
</g>
<path d="M27.4745 0.0546875L30.526 13.7876L45.5499 0.709291L27.4745 0.0546875Z" fill="url(#paint0_radial_4323_2546)"/>
<path d="M0 12.1856L43.4624 13.2648L45.5499 0.709473L0 12.1856Z" fill="#763000"/>
<path d="M42.4234 70.6617L17.3338 63.7834L38.9758 59.0373L42.4234 70.6617Z" fill="url(#paint1_radial_4323_2546)"/>
<path d="M17.4362 64L66 53.7237L61.7078 36L12 42.4436L17.4362 64Z" fill="url(#paint2_radial_4323_2546)"/>
<path d="M0 11.8293L5.06606 59L66.3671 54.0452L68 2L0 11.8293Z" fill="url(#paint3_radial_4323_2546)"/>
<path d="M23.502 24.1113H25.5527C25.5254 24.7051 25.3652 25.2285 25.0723 25.6816C24.7793 26.1348 24.373 26.4883 23.8535 26.7422C23.3379 26.9922 22.7285 27.1172 22.0254 27.1172C21.4551 27.1172 20.9453 27.0215 20.4961 26.8301C20.0508 26.6387 19.6719 26.3633 19.3594 26.0039C19.0508 25.6445 18.8145 25.209 18.6504 24.6973C18.4902 24.1855 18.4102 23.6094 18.4102 22.9688V22.5059C18.4102 21.8652 18.4941 21.2891 18.6621 20.7773C18.834 20.2617 19.0762 19.8242 19.3887 19.4648C19.7051 19.1016 20.084 18.8242 20.5254 18.6328C20.9668 18.4414 21.457 18.3457 21.9961 18.3457C22.7383 18.3457 23.3652 18.4785 23.877 18.7441C24.3887 19.0098 24.7852 19.375 25.0664 19.8398C25.3477 20.3008 25.5137 20.8262 25.5645 21.416H23.5137C23.5059 21.0957 23.4512 20.8281 23.3496 20.6133C23.248 20.3945 23.0879 20.2305 22.8691 20.1211C22.6504 20.0117 22.3594 19.957 21.9961 19.957C21.7422 19.957 21.5215 20.0039 21.334 20.0977C21.1465 20.1914 20.9902 20.3398 20.8652 20.543C20.7402 20.7461 20.6465 21.0098 20.584 21.334C20.5254 21.6543 20.4961 22.041 20.4961 22.4941V22.9688C20.4961 23.4219 20.5234 23.8086 20.5781 24.1289C20.6328 24.4492 20.7207 24.7109 20.8418 24.9141C20.9629 25.1172 21.1191 25.2676 21.3105 25.3652C21.5059 25.459 21.7441 25.5059 22.0254 25.5059C22.3379 25.5059 22.6016 25.457 22.8164 25.3594C23.0312 25.2578 23.1973 25.1055 23.3145 24.9023C23.4316 24.6953 23.4941 24.4316 23.502 24.1113ZM30.3806 20.2617L28.3005 27H26.0916L29.2263 18.4688H30.6267L30.3806 20.2617ZM32.1033 27L30.0173 20.2617L29.7478 18.4688H31.1658L34.3181 27H32.1033ZM32.0212 23.8184V25.4062H27.6443V23.8184H32.0212ZM39.5796 24.7324C39.5796 24.5996 39.5601 24.4805 39.521 24.375C39.482 24.2656 39.4097 24.1641 39.3042 24.0703C39.1987 23.9766 39.0464 23.8828 38.8472 23.7891C38.6519 23.6914 38.3941 23.5898 38.0737 23.4844C37.6987 23.3594 37.3374 23.2188 36.9898 23.0625C36.6421 22.9023 36.3316 22.7168 36.0581 22.5059C35.7847 22.291 35.5679 22.041 35.4077 21.7559C35.2476 21.4668 35.1675 21.1309 35.1675 20.748C35.1675 20.3809 35.2495 20.0508 35.4136 19.7578C35.5777 19.4609 35.8062 19.209 36.0991 19.002C36.396 18.791 36.7437 18.6309 37.1421 18.5215C37.5405 18.4082 37.9761 18.3516 38.4487 18.3516C39.0737 18.3516 39.6245 18.4609 40.1011 18.6797C40.5816 18.8945 40.9566 19.2012 41.2261 19.5996C41.4995 19.9941 41.6362 20.4609 41.6362 21H39.5913C39.5913 20.7852 39.5464 20.5957 39.4566 20.4316C39.3706 20.2676 39.2398 20.1387 39.064 20.0449C38.8882 19.9512 38.6675 19.9043 38.4019 19.9043C38.1441 19.9043 37.9273 19.9434 37.7515 20.0215C37.5757 20.0996 37.4429 20.2051 37.353 20.3379C37.2632 20.4668 37.2183 20.6094 37.2183 20.7656C37.2183 20.8945 37.2534 21.0117 37.3237 21.1172C37.398 21.2188 37.5015 21.3145 37.6343 21.4043C37.771 21.4941 37.9351 21.5801 38.1265 21.6621C38.3218 21.7441 38.5405 21.8242 38.7827 21.9023C39.2359 22.0469 39.6382 22.209 39.9898 22.3887C40.3452 22.5645 40.6441 22.7656 40.8862 22.9922C41.1323 23.2148 41.3179 23.4688 41.4429 23.7539C41.5718 24.0391 41.6362 24.3613 41.6362 24.7207C41.6362 25.1035 41.562 25.4434 41.4136 25.7402C41.2652 26.0371 41.0523 26.2891 40.7749 26.4961C40.4976 26.6992 40.1655 26.8535 39.7788 26.959C39.3921 27.0645 38.9605 27.1172 38.4839 27.1172C38.0464 27.1172 37.6148 27.0625 37.189 26.9531C36.7671 26.8398 36.3843 26.668 36.0405 26.4375C35.6968 26.2031 35.4214 25.9043 35.2144 25.541C35.0112 25.1738 34.9097 24.7383 34.9097 24.2344H36.9722C36.9722 24.4844 37.0054 24.6953 37.0718 24.8672C37.1382 25.0391 37.2359 25.1777 37.3648 25.2832C37.4937 25.3848 37.6519 25.459 37.8394 25.5059C38.0269 25.5488 38.2417 25.5703 38.4839 25.5703C38.7456 25.5703 38.9566 25.5332 39.1167 25.459C39.2769 25.3809 39.3941 25.2793 39.4683 25.1543C39.5425 25.0254 39.5796 24.8848 39.5796 24.7324ZM48.6848 21.8555V23.4375H44.3079V21.8555H48.6848ZM44.9934 18.4688V27H42.9368V18.4688H44.9934ZM50.0677 18.4688V27H48.0169V18.4688H50.0677Z" fill="#FEFFFF"/>
<path d="M22.1309 38.373H19.9336L19.9219 37.0254H21.7031C22.0234 37.0254 22.2793 36.9902 22.4707 36.9199C22.6621 36.8457 22.8008 36.7383 22.8867 36.5977C22.9766 36.457 23.0215 36.2812 23.0215 36.0703C23.0215 35.8281 22.9766 35.6328 22.8867 35.4844C22.7969 35.3359 22.6543 35.2285 22.459 35.1621C22.2676 35.0918 22.0195 35.0566 21.7148 35.0566H20.707V42H18.6504V33.4688H21.7148C22.2422 33.4688 22.7129 33.5176 23.127 33.6152C23.541 33.709 23.8926 33.8535 24.1816 34.0488C24.4746 34.2441 24.6973 34.4902 24.8496 34.7871C25.002 35.0801 25.0781 35.4258 25.0781 35.8242C25.0781 36.1719 25.0039 36.498 24.8555 36.8027C24.707 37.1074 24.459 37.3555 24.1113 37.5469C23.7676 37.7344 23.2969 37.832 22.6992 37.8398L22.1309 38.373ZM22.0488 42H19.4355L20.1387 40.418H22.0488C22.3301 40.418 22.5547 40.375 22.7227 40.2891C22.8945 40.1992 23.0176 40.082 23.0918 39.9375C23.1699 39.7891 23.209 39.625 23.209 39.4453C23.209 39.2266 23.1719 39.0371 23.0977 38.877C23.0273 38.7168 22.9141 38.5938 22.7578 38.5078C22.6016 38.418 22.3926 38.373 22.1309 38.373H20.4023L20.4141 37.0254H22.4824L22.9629 37.5645C23.5332 37.541 23.9844 37.6211 24.3164 37.8047C24.6523 37.9883 24.8926 38.2305 25.0371 38.5312C25.1816 38.832 25.2539 39.1465 25.2539 39.4746C25.2539 40.0332 25.1328 40.5 24.8906 40.875C24.6523 41.25 24.2949 41.5312 23.8184 41.7188C23.3418 41.9062 22.752 42 22.0488 42ZM30.2517 35.2617L28.1716 42H25.9627L29.0974 33.4688H30.4978L30.2517 35.2617ZM31.9744 42L29.8884 35.2617L29.6189 33.4688H31.0369L34.1892 42H31.9744ZM31.8923 38.8184V40.4062H27.5154V38.8184H31.8923ZM39.7788 39.1113H41.8296C41.8023 39.7051 41.6421 40.2285 41.3491 40.6816C41.0562 41.1348 40.6499 41.4883 40.1304 41.7422C39.6148 41.9922 39.0054 42.1172 38.3023 42.1172C37.732 42.1172 37.2222 42.0215 36.773 41.8301C36.3277 41.6387 35.9487 41.3633 35.6362 41.0039C35.3277 40.6445 35.0913 40.209 34.9273 39.6973C34.7671 39.1855 34.687 38.6094 34.687 37.9688V37.5059C34.687 36.8652 34.771 36.2891 34.939 35.7773C35.1109 35.2617 35.353 34.8242 35.6655 34.4648C35.982 34.1016 36.3609 33.8242 36.8023 33.6328C37.2437 33.4414 37.7339 33.3457 38.273 33.3457C39.0152 33.3457 39.6421 33.4785 40.1538 33.7441C40.6655 34.0098 41.062 34.375 41.3433 34.8398C41.6245 35.3008 41.7905 35.8262 41.8413 36.416H39.7905C39.7827 36.0957 39.728 35.8281 39.6265 35.6133C39.5249 35.3945 39.3648 35.2305 39.146 35.1211C38.9273 35.0117 38.6362 34.957 38.273 34.957C38.0191 34.957 37.7984 35.0039 37.6109 35.0977C37.4234 35.1914 37.2671 35.3398 37.1421 35.543C37.0171 35.7461 36.9234 36.0098 36.8609 36.334C36.8023 36.6543 36.773 37.041 36.773 37.4941V37.9688C36.773 38.4219 36.8003 38.8086 36.855 39.1289C36.9097 39.4492 36.9976 39.7109 37.1187 39.9141C37.2398 40.1172 37.396 40.2676 37.5874 40.3652C37.7827 40.459 38.021 40.5059 38.3023 40.5059C38.6148 40.5059 38.8784 40.457 39.0933 40.3594C39.3081 40.2578 39.4741 40.1055 39.5913 39.9023C39.7085 39.6953 39.771 39.4316 39.7788 39.1113ZM45.0989 33.4688V42H43.0423V33.4688H45.0989ZM50.1907 33.4688L46.886 37.793L44.9524 39.9082L44.5774 38.0215L45.8137 36.1465L47.6536 33.4688H50.1907ZM47.7591 42L45.5559 38.1562L47.1555 36.9785L50.1907 42H47.7591Z" fill="#FEFFFF"/>
<defs>
<filter id="filter0_f_4323_2546" x="13" y="58" width="49" height="25" filterUnits="userSpaceOnUse" color-interpolation-filters="sRGB">
<feFlood flood-opacity="0" result="BackgroundImageFix"/>
<feBlend mode="normal" in="SourceGraphic" in2="BackgroundImageFix" result="shape"/>
<feGaussianBlur stdDeviation="5" result="effect1_foregroundBlur_4323_2546"/>
</filter>
<radialGradient id="paint0_radial_4323_2546" cx="0" cy="0" r="1" gradientUnits="userSpaceOnUse" gradientTransform="translate(29.8984 -0.327054) scale(23.4488 14.6752)">
<stop stop-color="#FCD702"/>
<stop offset="1" stop-color="#DE5C04"/>
</radialGradient>
<radialGradient id="paint1_radial_4323_2546" cx="0" cy="0" r="1" gradientUnits="userSpaceOnUse" gradientTransform="translate(21.0302 57.8503) rotate(2.77094) scale(32.9415 12.2293)">
<stop stop-color="#FCD702"/>
<stop offset="1" stop-color="#DE5C04"/>
</radialGradient>
<radialGradient id="paint2_radial_4323_2546" cx="0" cy="0" r="1" gradientUnits="userSpaceOnUse" gradientTransform="translate(19.2415 35.2217) scale(70.0531 29.9211)">
<stop stop-color="#DE5C04"/>
<stop offset="1" stop-color="#763000"/>
</radialGradient>
<radialGradient id="paint3_radial_4323_2546" cx="0" cy="0" r="1" gradientUnits="userSpaceOnUse" gradientTransform="translate(6 20) rotate(-9.01932) scale(63.7887 44.045)">
<stop stop-color="#F7C502"/>
<stop offset="0.405" stop-color="#EE9E03"/>
<stop offset="1" stop-color="#FA7A04"/>
</radialGradient>
</defs>
</svg>
