<svg width="74" height="53" viewBox="0 0 74 53" fill="none" xmlns="http://www.w3.org/2000/svg">
<g clip-path="url(#clip0_4304_61188)">
<path d="M48.8343 12.8625L45.8412 7.89104C45.2206 6.85184 44.3733 5.43084 43.1258 5.03679L29.0771 0.592086C26.4577 -0.236831 23.6892 -0.236831 21.0697 0.592086L7.021 5.03884C5.83683 5.4145 4.83029 6.20667 4.1545 7.33367L1.35946 12.7849C0.516247 14.1835 0.356997 15.8638 0.922538 17.395C1.48604 18.9263 2.69879 20.1023 4.24841 20.6168L4.67716 20.7597L4.66491 36.2845C4.66287 40.2474 7.18637 43.755 10.9471 45.0065L20.8737 48.3161C22.2273 48.7673 23.6483 48.9939 25.0714 48.9939C26.4944 48.9939 27.9154 48.7693 29.269 48.3161L39.2038 45.0045C42.9645 43.7509 45.4962 40.2515 45.4982 36.2947V20.7495L45.9842 20.5882C47.5134 20.0778 48.7077 18.9201 49.2651 17.4093C49.8225 15.8985 49.6653 14.2406 48.8343 12.8605V12.8625ZM2.83762 16.6886C2.4885 15.7413 2.5865 14.702 3.14183 13.7772L5.93687 8.32388C6.07162 8.0993 6.23495 7.89513 6.42075 7.71546L23.5871 13.4566L19.5568 20.8863C18.7667 22.2031 17.1967 22.783 15.743 22.297L4.89562 18.6813C3.93808 18.3607 3.18675 17.6359 2.83762 16.6886ZM24.0362 46.9053C23.1828 46.8277 22.3355 46.6521 21.5189 46.3805L11.5923 43.071C8.66658 42.0951 6.7025 39.3695 6.70454 36.2865L6.71475 21.4395L15.0917 24.2325C17.4682 25.0247 20.0182 24.0794 21.3249 21.8969L24.0465 16.8805L24.0322 46.9032L24.0362 46.9053ZM9.19537 6.49046L21.6863 2.53779C23.9015 1.8375 26.2453 1.8375 28.4626 2.53779L40.9882 6.50271L25.0918 11.807L9.19537 6.49046ZM43.4566 36.2947C43.4545 39.3715 41.4864 42.093 38.5586 43.069L28.6239 46.3805C27.799 46.6562 26.9436 46.8318 26.08 46.9073L26.0942 16.8703L28.8423 21.9357C29.8223 23.571 31.5435 24.5082 33.3585 24.5082C33.92 24.5082 34.4916 24.4183 35.0531 24.2305L43.4586 21.4293V36.2927L43.4566 36.2947ZM47.35 16.7029C47.0091 17.6298 46.2761 18.3403 45.339 18.6527L34.4059 22.297C32.9481 22.7768 31.3822 22.2031 30.6145 20.925L26.5679 13.4648L43.3933 7.85021C43.6689 8.23405 43.9221 8.65871 44.0895 8.93842L47.0867 13.916C47.5971 14.7633 47.693 15.778 47.35 16.7049V16.7029Z" fill="#A3A3A3"/>
</g>
<g clip-path="url(#clip1_4304_61188)">
<path d="M73.1276 51.1417L67.2051 45.2191C68.6075 43.5058 69.4517 41.3188 69.4517 38.938C69.4517 33.4614 64.9962 29.0059 59.5196 29.0059C54.043 29.0059 49.5874 33.4614 49.5874 38.938C49.5874 44.4146 54.043 48.8702 59.5196 48.8702C61.9013 48.8702 64.0884 48.026 65.8007 46.6235L71.7232 52.5461C71.9169 52.7398 72.1712 52.8371 72.4254 52.8371C72.6797 52.8371 72.934 52.7398 73.1276 52.5461C73.516 52.1577 73.516 51.53 73.1276 51.1417ZM59.5196 46.8838C55.1385 46.8838 51.5738 43.3191 51.5738 38.938C51.5738 34.5569 55.1385 30.9923 59.5196 30.9923C63.9007 30.9923 67.4653 34.5569 67.4653 38.938C67.4653 43.3191 63.9007 46.8838 59.5196 46.8838ZM63.1955 36.6546L60.918 38.9321L63.1955 41.2095C63.5838 41.5979 63.5838 42.2256 63.1955 42.6139C63.0018 42.8076 62.7475 42.9049 62.4933 42.9049C62.239 42.9049 61.9847 42.8076 61.7911 42.6139L59.5136 40.3365L57.2362 42.6139C57.0425 42.8076 56.7882 42.9049 56.534 42.9049C56.2797 42.9049 56.0254 42.8076 55.8318 42.6139C55.4434 42.2256 55.4434 41.5979 55.8318 41.2095L58.1092 38.9321L55.8318 36.6546C55.4434 36.2663 55.4434 35.6386 55.8318 35.2502C56.2201 34.8619 56.8478 34.8619 57.2362 35.2502L59.5136 37.5277L61.7911 35.2502C62.1794 34.8619 62.8071 34.8619 63.1955 35.2502C63.5838 35.6386 63.5838 36.2663 63.1955 36.6546Z" fill="#A3A3A3"/>
</g>
<defs>
<clipPath id="clip0_4304_61188">
<rect width="49" height="49" fill="white" transform="translate(0.581543)"/>
</clipPath>
<clipPath id="clip1_4304_61188">
<rect width="23.8372" height="23.8372" fill="white" transform="translate(49.5815 29)"/>
</clipPath>
</defs>
</svg>
