<svg width="183" height="145" viewBox="0 0 183 145" fill="none" xmlns="http://www.w3.org/2000/svg">
<path d="M104.576 65.0394L103.335 63.242L101.151 63.2469C100.903 63.2474 100.761 62.9624 100.912 62.7644L102.236 61.0269L101.557 58.9501C101.48 58.7136 101.707 58.4909 101.942 58.5733L104.002 59.297L105.765 58.0086C105.966 57.8618 106.248 58.0092 106.242 58.2581L106.191 60.4427L107.961 61.7232C108.162 61.8691 108.109 62.1829 107.871 62.2542L105.779 62.8808L105.109 64.9607C105.033 65.1977 104.718 65.2442 104.576 65.0394Z" fill="#F47458"/>
<path d="M162.197 25.432L163.348 22.7642L161.805 20.3026C161.629 20.0223 161.851 19.6619 162.18 19.6928L165.071 19.964L166.933 17.7343C167.145 17.4804 167.556 17.5801 167.629 17.9031L168.264 20.7386L170.958 21.8222C171.265 21.9455 171.298 22.3676 171.013 22.5363L168.515 24.0175L168.318 26.9168C168.295 27.247 167.904 27.4081 167.656 27.1894L165.477 25.2694L162.661 25.9778C162.34 26.0583 162.066 25.7359 162.197 25.432Z" fill="#F7CC7F"/>
<path d="M11.8445 98.7589L10.3675 95.9306L7.20217 95.5449C6.84161 95.501 6.68796 95.0625 6.94211 94.8028L9.17327 92.5227L8.56162 89.3907C8.49191 89.0339 8.86122 88.7521 9.18645 88.9137L12.0425 90.3329L14.8298 88.7827C15.1473 88.6062 15.5292 88.8707 15.4761 89.2303L15.01 92.3872L17.3443 94.5613C17.6102 94.8089 17.477 95.2541 17.1188 95.3148L13.9748 95.8468L12.6303 98.7405C12.477 99.0702 12.0127 99.081 11.8445 98.7589Z" fill="#9BC1F9"/>
<path d="M180.631 30.8018L180.668 32.3474L178.19 32.6816L177.965 34.9482L176.151 35.5018L176.431 36.4207L178.857 35.6803L179.07 33.5323L181.648 33.1845L181.592 30.8588L180.631 30.8018Z" fill="#466EB6"/>
<path d="M43.3993 14.9782C43.5345 13.9643 44.5032 13.2276 45.5155 13.3688C46.569 13.5158 47.1764 14.3675 47.0765 15.4406C46.9565 16.5117 46.1465 17.2342 45.0353 17.1095C43.9072 16.9831 43.2536 16.0713 43.3993 14.9782ZM44.3976 12.1999L44.8938 4.05634C44.9348 3.38254 45.5314 2.88046 46.2016 2.95572L47.0113 3.04659C47.6807 3.12163 48.1511 3.74171 48.0438 4.40717L46.7434 12.4631L44.3976 12.1999Z" fill="#F48C7F"/>
<path d="M38.2392 55.9667C38.2942 57.9867 38.8149 62.3213 43.3914 63.0375C46.2323 63.482 49.8708 60.9281 49.6365 59.0528C49.4023 57.1777 48.8819 52.3988 45.9155 51.305C43.4368 50.391 38.1162 51.4598 38.2392 55.9667Z" fill="#184655"/>
<path d="M76.4253 121.255C77.0724 123.975 77.5817 127.9 77.7711 128.119C77.862 128.224 78.0503 128.909 78.1417 129.021C81.0971 130.096 83.6943 128.986 85.7528 127.765C84.139 127.479 81.9664 127.181 81.6632 126.967C80.5402 126.174 80.8086 123.349 80.6065 120.814C79.8073 120.955 77.8675 120.45 76.4253 121.255Z" fill="#F7A491"/>
<path d="M77.7097 127.965C77.7286 129.04 78.4196 131.333 78.6329 131.33C78.8879 131.327 87.7701 130.556 88.6071 129.193C89.1105 128.373 87.7427 128.159 85.7527 127.766C83.6943 128.987 77.9567 128.638 77.7097 127.965Z" fill="#466EB6"/>
<path d="M34.2453 127.325C32.1905 128.937 30.1123 130.224 29.8508 130.348C29.7252 130.408 29.0147 130.406 28.8829 130.464C27.0556 133.026 27.4285 135.827 28.0529 138.139C28.7608 136.66 29.5944 134.594 29.9166 134.41C30.4297 134.117 32.2803 133.017 35.6029 131.664C34.4773 130.442 34.6341 128.931 34.2453 127.325Z" fill="#F7A491"/>
<path d="M38.9248 70.4951L32.5766 82.053C32.5766 82.053 28.3319 87.3989 26.1467 90.1431C26.6173 90.9141 27.0723 91.7039 27.4789 92.5156C29.6533 90.665 34.2789 86.7386 35.9303 84.5687C38.3701 81.363 42.7851 73.7516 42.7851 73.7516L38.9248 70.4951Z" fill="#F7A491"/>
<path d="M55.8037 90.6113L49.0139 100.636C49.0139 100.636 48.6244 99.9643 51.0558 100.854C53.4873 101.744 69.1689 104.676 70.0967 105.784C70.7535 106.568 75.6173 121.964 76.5539 123.94C77.9644 124.513 80.0162 123.877 81.4643 123.669C81.5564 116.252 77.6325 102.751 76.586 101.168C74.2459 97.6303 63.1047 93.8081 58.0892 91.6642C57.2757 91.3165 56.6447 91.0043 56.2531 90.8154C55.9634 90.6758 55.8037 90.6113 55.8037 90.6113Z" fill="#3C8F7C"/>
<path d="M29.7418 130.375C28.7026 130.105 26.5842 130.113 26.5297 130.319C26.4645 130.566 24.8263 139.337 25.9148 140.51C26.5693 141.215 27.1415 139.953 28.0531 138.14C27.4288 135.827 29.0282 130.432 29.7418 130.375Z" fill="#466EB6"/>
<path d="M54.022 97.6672C54.0809 96.9144 55.6894 92.5197 56.2592 90.8089C56.2772 90.7547 55.8562 89.7655 55.4014 88.342L54.75 88.4464L45.0964 88.8841C45.0964 88.8841 41.2089 95.4561 41.6614 98.4752C42.2932 102.69 48.382 117.673 47.456 118.379C45.7849 119.653 37.5981 124.401 33.3911 127.224C33.66 128.854 34.4133 131.13 35.4455 132.432C38.869 131.24 53.663 125.271 55.1847 120.692C56.5288 116.648 53.9221 98.9469 54.022 97.6672Z" fill="#50BFA5"/>
<path d="M53.8665 60.7318C53.8665 60.7318 51.2078 64.9122 49.6401 65.063L55.1847 70.1974C55.1847 70.1974 58.9618 64.5296 59.356 63.5572C59.356 63.5572 55.9184 60.4928 53.8665 60.7318Z" fill="#F7CC7F"/>
<path d="M55.8079 85.9926C55.5592 88.2945 56.2684 90.812 56.2684 90.812C54.0388 91.2913 46.1358 92.2997 44.2028 89.9445C44.1337 89.8601 46.9398 84.9067 46.5534 82.884C45.9834 79.9006 43.5083 74.8417 43.303 74.5705C42.9585 74.1156 41.6927 76.4695 41.6927 76.4695C40.2099 76.4771 36.8142 73.0283 36.8142 73.0283C36.8142 73.0283 40.326 66.9051 41.2925 66.3294C42.2587 65.7538 50.2432 64.8839 50.2492 64.8835C50.8367 64.8411 52.4418 66.2352 52.8829 66.6756C57.9297 71.7151 56.5703 78.9365 55.8079 85.9926Z" fill="#FAE0B2"/>
<path d="M45.748 62.3147C45.748 62.3147 46.6183 65.1926 46.6244 66.3625C46.6305 67.5326 47.0967 69.1248 49.5479 68.8838C51.9989 68.6428 49.9883 66.1739 49.6404 65.0627C49.2924 63.9516 48.8751 60.4434 48.8751 60.4434L45.748 62.3147Z" fill="#F7A491"/>
<path d="M49.1076 62.2021C48.9703 61.2448 48.875 60.4443 48.875 60.4443L45.748 62.3155C45.748 62.3155 45.9261 62.904 46.1216 63.6569C47.5893 63.7976 48.5764 63.1572 49.1076 62.2021Z" fill="#F47458"/>
<path d="M43.1978 53.6274C43.1978 53.6274 41.9082 54.5286 41.5779 56.2267C41.2477 57.9248 42.2555 62.1144 45.8954 62.7742C49.5354 63.4338 50.7191 59.9116 49.7197 57.3566C48.7204 54.8017 46.7933 51.6348 43.1978 53.6274Z" fill="#F7A491"/>
<path d="M50.0566 56.2921C50.0602 57.0057 49.7266 57.5859 49.3112 57.588C48.8959 57.5901 48.5562 57.0134 48.5525 56.2998C48.5488 55.5862 48.8826 55.006 49.2978 55.0039C49.7132 55.0018 50.0529 55.5786 50.0566 56.2921Z" fill="#F7A491"/>
<path d="M43.1599 59.8462C43.6389 60.4206 43.7125 61.1491 43.3245 61.4731C42.9365 61.7971 42.2337 61.5939 41.7548 61.0194C41.2758 60.4448 41.2022 59.7164 41.5903 59.3925C41.9783 59.0685 42.6811 59.2716 43.1599 59.8462Z" fill="#F7A491"/>
<path d="M39.4685 52.0283C39.6114 50.0713 40.995 42.7935 36.5465 42.1035C32.098 41.4136 31.1483 46.277 28.6818 39.7304C26.3969 33.6657 19.6055 36.0138 19.3217 40.6193C18.6771 40.5645 18.0166 40.6584 17.3873 40.9238C15.2104 41.842 14.2317 44.4526 15.2013 46.755C15.3553 47.121 15.2678 47.4838 15.4939 47.7867C14.9723 49.7927 15.3322 52.0857 16.8795 54.4151C21.1056 60.7774 25.3446 54.0803 28.2022 54.4371C31.06 54.7937 29.1973 57.0298 31.6727 58.7751C34.1481 60.5203 36.1408 60.0633 40.1703 55.3026L41.165 53.9905C41.165 53.9905 39.3256 53.9853 39.4685 52.0283Z" fill="#184655"/>
<path d="M164.507 107.46C166.737 106.568 168.733 105.357 168.969 105.233C169.15 105.137 169.907 104.579 170.015 104.501C171.98 105.671 172.698 106.666 174.247 108.231C173.101 108.293 172.616 107.352 172.177 107.45C171.647 107.568 169.978 108.688 167.37 110.708C166.919 109.248 165.604 108.511 164.507 107.46Z" fill="#F8A492"/>
<path d="M132.95 130.328C133.457 132.677 134.382 134.766 134.495 135.007C134.549 135.123 134.894 135.212 134.953 135.331C133.473 137.076 132.833 139.98 131.034 141.248C131.164 140.107 131.929 137.964 131.905 137.514C131.877 136.971 131.051 135.139 129.495 132.229C131.009 132.026 131.732 131.236 132.95 130.328Z" fill="#F8A492"/>
<path d="M133.886 135.488C134.087 134.98 134.754 134.629 135.228 134.929C135.705 135.232 136.34 135.563 136.814 135.891C137.347 136.261 137.385 136.677 137.371 136.771C137.333 137.043 131.031 144.418 130.224 144.525C129.417 144.631 130.91 138.395 131.795 137.753C132.583 137.183 132.978 137.771 133.886 135.488Z" fill="#3C8F7C"/>
<path d="M169.827 105.237C169.364 104.948 169.139 104.228 169.519 103.816C169.902 103.4 170.34 102.834 170.748 102.426C171.207 101.967 171.622 102.005 171.713 102.035C171.973 102.122 178.095 109.646 178.055 110.46C178.016 111.274 172.152 108.688 171.68 107.701C171.261 106.824 171.91 106.54 169.827 105.237Z" fill="#3C8F7C"/>
<path d="M135.361 102.836C135.361 102.836 147.789 119.598 149.952 119.752C151.975 119.897 167.649 111.149 167.649 111.149L165.61 106.633L153.058 111.149L144.318 94.5947L135.361 102.836Z" fill="#B75742"/>
<path d="M142.516 88.6729C142.516 88.6729 144.791 89.215 146.091 92.6848C147.391 96.1546 145.217 99.0375 139.767 104.066C134.462 108.962 129.222 113.56 129.222 113.56L133.523 131.286L129.948 134.322C129.948 134.322 121.662 116.307 121.421 112.018C121.329 110.38 134.065 91.3837 134.065 91.3837L142.516 88.6729Z" fill="#F47458"/>
<path d="M132.9 66.9694L125.971 70.8481L120.482 73.4867C120.482 73.4867 119.142 68.9266 119.591 66.6913C119.655 66.372 119.971 65.9938 120.085 65.8238C120.99 64.465 119.055 62.3538 119.055 62.3538C119.055 62.3538 117.89 62.0221 117.097 63.9471C116.305 65.8722 117.768 66.6888 117.768 66.6888C117.768 66.6888 116.099 72.5171 116.798 76.7638C117.164 78.989 122.723 77.3553 127.151 75.4384C130.875 73.8267 133.616 72.0278 133.616 72.0278L132.9 66.9694Z" fill="#F7A491"/>
<path d="M134.458 66.3039C134.312 66.1668 134.071 66.0861 133.678 66.2322C132.82 66.5513 124.503 71.1246 124.503 71.1246C124.503 71.1246 125.249 75.1248 127.199 76.3537L131.389 75.0736L134.594 66.9652C134.684 66.7374 134.637 66.4713 134.458 66.3039Z" fill="#3C8F7C"/>
<path d="M153.607 49.2043C150.45 47.2688 146.514 47.6424 144.171 50.2431C142.242 49.5176 140.031 49.5738 138.242 50.4102C134.712 52.0603 131.588 56.3685 134.248 59.4962C133.682 63.6484 136.165 66.0631 139.257 66.3392C140.938 69.7151 146.898 70.0617 150.326 67.2811C153.159 68.3768 156.524 67.9046 158.618 65.8592C159.121 65.3683 159.858 64.5819 160.026 64.5098C159.824 64.6118 167.919 63.5379 167.549 56.396C167.172 49.1081 158.458 46.3108 153.607 49.2043Z" fill="#FE875E"/>
<path d="M139.262 65.7515L144.401 66.035L143.548 73.2216C143.548 73.2216 141.068 80.1374 142.079 83.4628C143.09 86.7882 144.065 89.2099 144.065 89.2099C144.065 89.2099 141.14 92.5716 132.942 91.8848C132.942 91.8848 133.05 85.9207 132.942 84.1135C132.833 82.3061 130.739 74.788 131.028 73.0891C131.317 71.3902 133.122 66.6913 133.592 66.2937C134.061 65.896 135.921 65.6973 135.921 65.6973L139.262 65.7515Z" fill="#50BFA5"/>
<path d="M139.503 61.8051C139.503 61.8051 139.415 62.3862 139.331 63.1323C139.226 64.0635 139.128 65.2519 139.216 65.8876C139.375 67.0328 138.298 70.0511 135.867 70.1611C133.436 70.2712 135.816 66.8269 135.999 65.6911C136.183 64.5552 136.182 60.416 136.182 60.416L139.503 61.8051Z" fill="#F7A491"/>
<path d="M136.202 62.1679C136.201 61.2122 136.182 60.416 136.182 60.416L139.504 61.805C139.504 61.805 139.412 62.4056 139.327 63.1697C137.911 63.5142 136.856 63.027 136.202 62.1679Z" fill="#F47458"/>
<path d="M139.754 53.2698C139.754 53.2698 141.16 53.7682 141.889 55.2371C142.619 56.7059 142.752 60.7896 139.591 62.3106C136.43 63.8317 134.461 60.9105 134.732 58.3233C135.002 55.736 135.966 52.3552 139.754 53.2698Z" fill="#F7A491"/>
<path d="M134.156 57.4342C134.332 58.0874 134.783 58.5336 135.163 58.4308C135.543 58.328 135.709 57.7152 135.533 57.0621C135.356 56.409 134.905 55.9626 134.525 56.0655C134.145 56.1682 133.98 56.7811 134.156 57.4342Z" fill="#F7A491"/>
<path d="M141.508 58.8326C141.215 59.4785 141.331 60.1629 141.767 60.3611C142.203 60.5593 142.795 60.1964 143.088 59.5505C143.381 58.9045 143.265 58.2201 142.828 58.022C142.392 57.8237 141.801 58.1865 141.508 58.8326Z" fill="#F7A491"/>
<path d="M72.9991 90.2567C72.5159 88.8481 52.8441 31.4956 51.9847 28.9904C50.6691 25.1547 46.4588 23.0931 42.5806 24.3858L13.239 34.1658C9.36088 35.4584 7.28358 39.6158 8.59916 43.4515L29.6135 104.718C30.9292 108.553 35.1394 110.615 39.0176 109.322L68.3593 99.5424C72.2375 98.2496 74.3148 94.0923 72.9991 90.2567ZM65.8725 91.8028L36.2297 101.683C33.9929 102.429 31.5646 101.24 30.8056 99.0273L11.3695 42.362C10.6108 40.1497 11.8087 37.7519 14.0456 37.0063L43.6884 27.126C45.9252 26.3804 48.3535 27.5695 49.1124 29.7818C53.8321 43.542 68.124 85.2092 68.5486 86.4471C69.3073 88.6594 68.1094 91.0573 65.8725 91.8028Z" fill="#355389"/>
<path d="M58.2727 98.4476C58.725 99.7661 56.6495 101.649 53.6371 102.653C50.6246 103.657 47.8158 103.402 47.3636 102.084C46.9114 100.765 48.9869 98.8823 51.9993 97.8782C55.0118 96.8742 57.8205 97.129 58.2727 98.4476Z" fill="#184655"/>
<path d="M57.4706 98.5526C57.8955 99.7912 56.1768 101.483 53.6318 102.331C51.0868 103.18 48.6793 102.863 48.2544 101.625C47.8296 100.386 49.5484 98.6943 52.0933 97.8459C54.6383 96.9976 57.0459 97.3141 57.4706 98.5526Z" fill="#355389"/>
<path d="M165.5 32.9016L132.528 25.4414C128.17 24.4554 123.873 27.0367 122.931 31.2069L107.886 97.8157C106.944 101.986 109.713 106.166 114.071 107.152L147.043 114.612C151.4 115.598 155.697 113.017 156.639 108.847L171.685 42.2379C172.627 38.0677 169.858 33.8877 165.5 32.9016ZM154.635 102.965C154.092 105.371 151.614 106.859 149.1 106.291L115.79 98.7539C113.276 98.1851 111.679 95.7744 112.222 93.369L126.138 31.7623C126.682 29.357 129.16 27.8682 131.673 28.437L164.984 35.9738C167.497 36.5426 169.094 38.9534 168.551 41.3586L154.635 102.965Z" fill="#86B1F2"/>
<path d="M138.232 108.048C137.908 109.481 134.901 110.022 131.516 109.257C128.131 108.491 125.649 106.708 125.973 105.274C126.297 103.841 129.303 103.299 132.689 104.065C136.074 104.831 138.556 106.614 138.232 108.048Z" fill="#466EB6"/>
<path d="M137.422 107.699C137.118 109.045 134.553 109.613 131.693 108.965C128.833 108.318 126.761 106.702 127.066 105.355C127.37 104.009 129.935 103.442 132.794 104.089C135.654 104.736 137.726 106.352 137.422 107.699Z" fill="#86B1F2"/>
<path d="M144.193 67.8988C144.193 67.8988 155.029 65.265 157.444 64.8219C159.86 64.3787 168.242 61.3526 168.564 61.2246C168.886 61.0965 170.08 56.7811 170.553 57.0825C171.026 57.3837 169.827 59.2582 170.419 59.5009C171.011 59.7438 176.059 57.4815 176.094 57.8906C176.16 58.656 173.058 59.3926 173.156 59.7442C173.254 60.0958 176.323 58.6783 176.699 59.2046C177.074 59.731 173.668 60.2777 173.606 60.5744C173.544 60.8712 176.878 60.4852 176.696 61.118C176.598 61.4615 173.724 61.3899 173.845 61.7892C173.967 62.1885 176.155 62.5818 176.004 62.9669C175.852 63.352 174.214 62.3928 173.083 62.6805C171.952 62.9681 170.987 62.5972 169.322 63.5758C167.656 64.5544 162.192 68.6814 158.305 69.5341C154.419 70.3868 145.837 72.2939 145.837 72.2939L144.193 67.8988Z" fill="#F7A491"/>
<path d="M141.569 66.2293C141.935 66.054 143.061 66.0254 144.399 66.0353C144.892 66.039 145.585 66.0429 146.112 66.0278C148.069 65.9718 149.928 66.0639 149.928 66.0639C149.928 66.0639 150.912 70.8234 150.093 72.0392C150.093 72.0392 142.436 73.1338 142.621 73.6667L141.569 66.2293Z" fill="#50BFA5"/>
<path d="M115.016 66.256L115.676 65.4211C115.676 65.4211 116.086 64.7849 116.703 64.7226C117.32 64.6603 117.301 63.8859 116.648 63.9963C115.994 64.1067 115.583 64.2624 115.583 64.2624C115.583 64.2624 116.882 63.5946 116.905 63.508C117.034 63.0215 116.317 62.8325 115.357 63.5456C114.397 64.2588 115.016 66.256 115.016 66.256Z" fill="#F7A491"/>
<path d="M26.5393 91.3151C26.1205 91.5421 25.8279 91.7508 25.6965 91.8502C25.7029 91.8366 25.7094 91.8228 25.7164 91.8088C25.8545 91.6638 26.3287 91.1563 26.3329 91.1532C26.9563 90.6771 26.6288 90.1679 26.0459 90.4837C25.463 90.7995 25.1248 91.0797 25.1248 91.0797C25.1248 91.0797 26.1362 90.0927 26.1317 89.9385C26.1172 89.4352 25.3575 89.4892 24.6793 90.4745C24.0857 91.3372 24.9614 92.8458 25.2153 93.2028C25.4663 93.7209 25.9256 93.9617 25.9256 93.9617L26.0804 92.9775C26.0804 92.9775 26.2627 92.2428 26.8265 91.9846C27.3901 91.7261 27.1222 90.9993 26.5393 91.3151Z" fill="#F7A491"/>
<path d="M117.41 63.2333C117.41 63.2333 118.949 61.9953 119.194 62.5221C119.438 63.0489 119.332 64.1876 119.102 64.1072C118.872 64.0268 118.903 63.215 118.241 63.4267C118.057 63.4859 117.141 63.7752 117.41 63.2333Z" fill="#F7A491"/>
<path d="M81.0867 65.4737L72.7488 60.4026C71.9024 59.8878 71.6331 58.7837 72.1476 57.9366L77.2145 49.5916C77.7289 48.7444 78.8321 48.475 79.6785 48.9898L88.0164 54.0609C88.8629 54.5758 89.1322 55.6799 88.6178 56.5271L83.5509 64.872C83.0363 65.7191 81.9331 65.9885 81.0867 65.4737Z" fill="#96D9C9"/>
<g clip-path="url(#clip0_4265_36113)">
<path d="M77.6889 54.3585C77.7143 54.894 77.7755 55.4271 77.872 55.9544L78.0972 56.0854C78.1633 55.9061 78.2161 55.7222 78.2552 55.5352C78.3941 54.8379 78.3495 54.1164 78.1255 53.4416L78.4125 53.3501C78.6523 54.0742 78.6997 54.8482 78.55 55.5962C78.5248 55.7187 78.492 55.8403 78.4555 55.9612C78.4796 55.9466 78.504 55.9325 78.5274 55.9159C79.1989 55.4347 79.659 54.3142 79.2451 53.5919C79.1404 53.4277 79.0035 53.2864 78.8427 53.1766C78.6819 53.0668 78.5006 52.9908 78.3096 52.9531C78.2263 52.9293 78.139 52.9229 78.0531 52.9342C77.9672 52.9456 77.8846 52.9744 77.8103 53.0191C77.6397 53.1536 77.6514 53.5708 77.6889 54.3585Z" fill="white"/>
<path d="M80.7809 55.952C80.8167 55.8676 80.8418 55.7791 80.8557 55.6885C80.952 55.0548 80.5264 54.4228 80.11 54.3222C79.9706 54.2937 79.8258 54.3115 79.6974 54.3728C79.6336 55.0352 79.3148 55.6468 78.8085 56.0781C78.8212 56.0733 78.8348 56.0704 78.8472 56.0658C79.3317 55.8687 79.7514 55.5397 80.0588 55.1162L80.3012 55.2952C79.9609 55.7649 79.4952 56.1291 78.9575 56.3462C78.8715 56.3801 78.7826 56.4074 78.6932 56.433L79.2938 56.7823L79.3075 56.7835C79.3935 56.4782 79.5967 56.2194 79.8728 56.0636C80.1489 55.9079 80.4754 55.868 80.7809 55.9525L80.7809 55.952Z" fill="white"/>
<path d="M82.4231 58.6027L83.7272 59.3613C83.7141 59.1928 83.6522 59.0317 83.5491 58.8979C83.4782 58.8168 83.3957 58.7465 83.3044 58.6893C83.19 58.6109 83.0604 58.5219 83.0705 58.3599C83.0818 58.1904 83.2352 58.1312 83.3584 58.0834C83.4767 58.0468 83.5848 57.9828 83.6739 57.8967C83.9013 57.6533 84.1759 57.1823 83.9992 56.8818C83.9562 56.8152 83.9004 56.7579 83.8348 56.7133C83.7693 56.6687 83.6955 56.6378 83.6178 56.6224C83.3883 56.5674 83.1465 56.6015 82.9411 56.7178C82.7257 56.855 82.6585 57.1071 82.5937 57.3507C82.529 57.5942 82.4605 57.8501 82.2146 57.91C81.9646 57.9712 81.7672 57.7718 81.5765 57.578C81.5185 57.7221 81.4316 57.8527 81.3212 57.9618L82.1584 58.4488C82.2981 58.2832 82.4421 58.1197 82.5902 57.9627C82.8436 57.6944 83.113 57.4351 83.3908 57.1921L83.589 57.4189C83.3184 57.6557 83.056 57.9085 82.8092 58.1699C82.6771 58.3099 82.5485 58.4555 82.4231 58.6027Z" fill="white"/>
<path d="M81.0498 57.803C81.1128 57.7494 81.168 57.6872 81.2136 57.6183L80.9552 57.5645L81.0167 57.269L81.3403 57.3363C81.3819 57.1709 81.376 56.9971 81.3233 56.835C81.2706 56.6728 81.1732 56.5288 81.0424 56.4196L80.8978 56.6685L80.6374 56.517L80.7819 56.2681C80.645 56.217 80.4977 56.1998 80.3527 56.218C80.2076 56.2362 80.0692 56.2893 79.9491 56.3728L80.1326 56.5812L79.9065 56.7809L79.733 56.5838C79.7153 56.6082 79.6988 56.6335 79.6836 56.6596C79.6318 56.7484 79.5959 56.8454 79.5773 56.9465L81.0498 57.803ZM80.486 56.7777L80.7465 56.9292L80.5951 57.1898L80.3347 57.0383L80.486 56.7777Z" fill="white"/>
<path d="M77.5345 55.7591C77.4919 55.4967 77.458 55.2319 77.4327 54.9647C77.2906 54.9351 77.1461 54.9184 77.001 54.9148C76.889 54.9017 76.7761 54.9287 76.6822 54.991C76.6182 55.0399 76.57 55.1066 76.5436 55.1828L77.5345 55.7591Z" fill="white"/>
<path d="M76.3884 55.4412C75.8949 56.3711 75.7802 57.4561 76.0684 58.4688C76.3566 59.4814 77.0253 60.3431 77.9343 60.8732L78.1947 61.0247C79.1049 61.5528 80.1841 61.7077 81.2059 61.457C82.2277 61.2063 83.1129 60.5694 83.6758 59.6799L76.3884 55.4412ZM76.9615 59.4182C76.5182 58.7624 76.2746 57.992 76.26 57.2004L76.5612 57.1946C76.5748 57.928 76.8005 58.6418 77.211 59.2495L76.9615 59.4182ZM77.4557 59.8975L77.1953 59.746L77.3466 59.4854L77.6071 59.6368L77.4557 59.8975Z" fill="white"/>
<path d="M83.953 55.308L84.1043 55.0473L83.5835 54.7444C83.3072 54.5837 82.9784 54.5394 82.6695 54.6213C82.3606 54.7032 82.0969 54.9045 81.9363 55.181L81.785 55.4417L82.3058 55.7446C82.5821 55.9053 82.9109 55.9496 83.2198 55.8677C83.5287 55.7858 83.7924 55.5845 83.953 55.308Z" fill="white"/>
<path d="M81.3274 54.1295C81.4714 54.2132 81.6558 54.1644 81.7394 54.0204C81.823 53.8764 81.7741 53.6918 81.6302 53.6081C81.4863 53.5244 81.3019 53.5733 81.2182 53.7172C81.1346 53.8612 81.1835 54.0458 81.3274 54.1295Z" fill="white"/>
<path d="M79.8619 52.7538C80.0058 52.8375 80.1902 52.7886 80.2739 52.6447C80.3575 52.5007 80.3086 52.3161 80.1646 52.2324C80.0207 52.1487 79.8363 52.1975 79.7527 52.3415C79.6691 52.4855 79.718 52.6701 79.8619 52.7538Z" fill="white"/>
</g>
<path d="M127.565 16.1213L118.732 20.2669C117.836 20.6876 116.767 20.3013 116.347 19.4037L112.202 10.5628C111.781 9.66523 112.167 8.59645 113.063 8.17567L121.896 4.03006C122.793 3.60919 123.861 3.99558 124.282 4.89315L128.427 13.7341C128.848 14.6317 128.462 15.7004 127.565 16.1213Z" fill="#96D9C9"/>
<g clip-path="url(#clip1_4265_36113)">
<path d="M122.386 9.32022C122.314 9.17759 122.143 9.11573 121.997 9.17913L120.889 9.65596L120.531 8.8252C120.202 8.06051 119.315 7.70746 118.551 8.03665C117.786 8.36584 117.434 9.2526 117.763 10.0173L118.121 10.8481L117.013 11.3249C116.867 11.3878 116.794 11.5542 116.849 11.7044L118.5 16.2096C118.672 16.6788 119.191 16.9205 119.66 16.7493C119.677 16.7433 119.693 16.7368 119.709 16.7298L124.075 14.8498C124.534 14.6531 124.746 14.1214 124.55 13.6622C124.543 13.6461 124.535 13.6301 124.527 13.6144L122.386 9.32022ZM118.317 9.77888C118.119 9.32005 118.331 8.788 118.789 8.59049C119.248 8.39298 119.78 8.6048 119.978 9.06362L120.336 9.89438L118.675 10.6096L118.317 9.77888Z" fill="white"/>
</g>
<path d="M88.9414 26.83C88.9414 26.83 89.2432 25.1 91.0383 24.2666C92.6388 23.5234 94.3643 24.3546 95.0895 25.919C95.9288 27.7297 95.4182 30.5702 92.3781 34.2445C87.6117 34.1947 85.1151 32.7503 84.2758 30.9395C83.5507 29.3752 84.031 27.5199 85.6314 26.7767C87.4266 25.9435 88.9414 26.83 88.9414 26.83Z" fill="#F48C7F"/>
<path d="M31.1174 19.0646L20.5234 24.1168C19.2736 24.7129 17.7778 24.182 17.1823 22.9313L14.3398 16.9608C13.7443 15.71 14.2746 14.2129 15.5244 13.617L26.1184 8.56481C27.3682 7.96891 28.8639 8.49969 29.4594 9.7504L32.302 15.7209C32.8975 16.9716 32.3671 18.4686 31.1174 19.0646Z" fill="#FAE0B2"/>
<path d="M16.1995 19.6738L13.9307 26.4399L18.9702 22.7103L16.1995 19.6738Z" fill="#FAE0B2"/>
<path d="M19.9391 17.0589L21.2793 16.3774C21.2793 16.3774 22.3648 14.2759 22.1986 13.8005C22.0324 13.3251 21.291 12.5085 21.4971 12.2605C21.7034 12.0125 22.2172 11.6459 22.8599 12.0699C23.3264 12.3776 23.8791 14.0603 24.0892 14.0887C24.2207 14.1066 25.0019 13.7365 25.5683 13.457C25.9408 13.2733 26.3839 13.312 26.7193 13.5571L26.7203 13.5578C26.9469 13.7236 27.0269 14.0254 26.9118 14.2817L26.7328 14.6805L27.1233 14.8807C27.4139 15.0298 27.5298 15.3858 27.3828 15.6776L27.2329 15.9751L27.4862 16.0817C27.8122 16.219 27.947 16.6093 27.775 16.9187L27.6354 17.17L27.6956 17.2132C27.946 17.3926 28.0179 17.7338 27.8611 17.9992L27.7169 18.2433L24.1472 20.0577C23.8127 20.2278 23.447 20.3275 23.0727 20.351L21.7117 20.7815C21.5655 20.8277 21.4075 20.7598 21.3401 20.622L19.801 17.4713C19.7268 17.3193 19.7882 17.1356 19.9391 17.0589Z" fill="white"/>
<path d="M107.586 33.6431C115.593 31.8229 122.99 34.3385 124.107 39.2615C124.666 41.7231 123.549 44.3205 121.291 46.53L126.188 53.0498L118.069 48.9618C116.218 50.051 114.033 50.9251 111.631 51.4712C103.624 53.2912 96.2267 50.7758 95.1095 45.8527C93.9923 40.9296 99.5782 35.4632 107.586 33.6431Z" fill="#FAE0B2"/>
<path d="M115.298 42.19C115.183 45.0521 112.771 47.2784 109.912 47.1625C107.053 47.0467 104.828 44.6327 104.944 41.7707C105.059 38.9087 107.47 36.6825 110.329 36.7983C113.189 36.914 115.413 39.3281 115.298 42.19Z" fill="#F7CC7F"/>
<path d="M107.32 42.6895C107.258 44.2196 108.448 45.5102 109.976 45.5722C111.505 45.6342 112.794 44.4438 112.856 42.9136L107.32 42.6895Z" fill="#EFEFEF"/>
<path d="M6.85256 56.5732L4.21064 57.1008L4.53862 59.592L1.95892 60.2267L1.97886 62.6462L0.125977 63.437L0.525979 64.3759L3.00422 63.3182L2.98523 61.0252L5.6689 60.3651L5.34632 57.9148L7.74051 57.4368L6.85256 56.5732Z" fill="#F48C7F"/>
<path d="M182.843 77.0644L182.106 74.4711L179.651 74.998L178.812 72.4754L176.404 72.6895L175.468 70.9043L174.565 71.3786L175.817 73.766L178.099 73.5633L178.972 76.1877L181.386 75.6692L182.054 78.0194L182.843 77.0644Z" fill="#F7CC7F"/>
<path d="M7.29004 28.9094L5.81322 29.3631L4.8215 27.0656L2.58054 27.4622L1.55749 25.8643L0.749268 26.3826L2.11758 28.5198L4.24127 28.1439L5.27296 30.534L7.49515 29.8514L7.29004 28.9094Z" fill="#50BFA5"/>
<path d="M62.0346 38.2007C61.5192 37.7752 60.3155 37.426 59.7164 37.372C59.1173 37.3181 56.5011 37.3198 56.1622 37.9494C55.8232 38.5789 58.5699 40.3627 58.7162 41.104C58.8626 41.8452 57.1256 53.3553 56.6242 55.641C56.3769 56.7682 55.4273 58.8915 54.5283 60.7545C55.8212 60.9612 57.4012 62.0197 58.3934 62.7749C59.6652 59.9906 60.9663 56.8607 61.1282 55.3894C61.4552 52.4196 62.5502 38.626 62.0346 38.2007Z" fill="#F7A491"/>
<path d="M69.6214 18.3437C68.7298 18.2688 64.0672 21.8275 64.0672 21.8275L63.8589 22.1066C63.8589 22.1066 70.1539 23.1711 70.4494 22.9733C71.247 22.4392 70.3538 18.4053 69.6214 18.3437ZM64.0823 21.9361C65.6019 20.8301 68.732 19.4754 69.4062 19.1904C69.7531 19.8302 70.0697 21.5158 69.9769 22.2101C69.2346 22.1542 65.9239 22.2294 64.0823 21.9361Z" fill="#466EB6"/>
<path d="M62.8116 15.3944C62.0048 13.234 61.2169 13.3349 60.6583 13.4078C60.0995 13.4805 57.5882 15.2605 57.8228 16.6291C58.0577 17.9976 63.0825 21.9938 63.0825 21.9938L63.4151 21.6084C63.4151 21.6084 63.6182 17.5547 62.8116 15.3944ZM58.5874 16.4949C58.4705 15.8123 60.2122 14.3577 60.7855 14.1746C60.9182 14.1575 61.0329 14.145 61.1213 14.1702C61.2275 14.2006 61.6107 14.3982 62.0842 15.6663C62.6019 17.0526 63.1435 20.2598 63.1359 21.5403C61.1322 19.8643 58.7182 17.0828 58.5874 16.4949Z" fill="#466EB6"/>
<path d="M63.1241 22.8394L63.3977 22.9177C63.669 22.9951 63.9516 22.838 64.0291 22.5665L64.259 21.7608C64.3364 21.4893 64.1794 21.2065 63.9081 21.129L63.6344 21.0508C63.3632 20.9733 63.0805 21.1305 63.003 21.4019L62.7731 22.2076C62.6958 22.479 62.8528 22.7619 63.1241 22.8394Z" fill="#466EB6"/>
<path d="M68.2328 40.4706L50.8938 35.5153C49.9568 35.2475 49.3881 34.2977 49.5941 33.3444L52.6618 19.1458L75.2417 25.5989L70.1525 39.846C69.9397 40.4417 69.0942 40.7168 68.2328 40.4706Z" fill="#F47458"/>
<path d="M75.3063 28.9076L50.7805 21.949L50.9699 20.2974C51.0835 19.3066 52.0596 18.6556 53.0169 18.9321L75.1809 25.3323C75.9689 25.5599 76.4472 26.2224 76.2163 26.7661L75.3063 28.9076Z" fill="#FAE0B2"/>
<path d="M63.4958 21.9451L62.542 25.2891L63.0089 25.4225L63.9627 22.0785L63.4958 21.9451Z" fill="#466EB6"/>
<path d="M63.016 25.4058L59.4307 37.9758L60.0144 38.1426L63.5997 25.5725L63.016 25.4058Z" fill="#466EB6"/>
<path d="M57.566 38.1815L57.6287 37.4432C57.0328 37.2745 56.3462 37.0259 55.9939 36.8775L55.8982 36.3138C55.5866 35.5412 55.2407 36.0923 55.1397 36.2686C55.1397 36.2686 55.1143 37.2598 55.2254 37.3755C55.2254 37.3755 56.3944 38.6111 56.8933 39.0784C57.1403 39.3098 57.9291 39.9506 57.9291 39.9506L58.5562 39.0805L57.566 38.1815Z" fill="#F7A491"/>
<defs>
<clipPath id="clip0_4265_36113">
<rect width="9.64105" height="9.64503" fill="white" transform="matrix(0.86441 0.502787 -0.502161 0.864774 78.4382 50.7058)"/>
</clipPath>
<clipPath id="clip1_4265_36113">
<rect width="8.44289" height="8.43947" fill="white" transform="matrix(0.91815 -0.395345 0.395732 0.918749 114.677 9.70508)"/>
</clipPath>
</defs>
</svg>
