<svg width="73" height="58" viewBox="0 0 73 58" fill="none" xmlns="http://www.w3.org/2000/svg">
<g clip-path="url(#clip0_4304_61238)">
<path d="M34.6948 47.3502H30.8281V43.4408C30.8281 42.9504 30.4306 42.553 29.9403 42.553C29.45 42.553 29.0525 42.9504 29.0525 43.4408V47.6203C29.0525 48.4504 29.7104 49.1258 30.5189 49.1258H34.6948C35.1851 49.1258 35.5826 48.7284 35.5826 48.238C35.5826 47.7477 35.1852 47.3502 34.6948 47.3502Z" fill="#A3A3A3"/>
<path d="M13.8904 16.5911C11.9951 16.5911 10.4531 18.1371 10.4531 20.0375C10.4531 21.9379 11.9951 23.4838 13.8904 23.4838C15.7857 23.4838 17.3277 21.9378 17.3277 20.0375C17.3277 18.1372 15.7857 16.5911 13.8904 16.5911ZM13.8904 21.7084C12.9741 21.7084 12.2287 20.9589 12.2287 20.0375C12.2287 19.116 12.9742 18.3666 13.8904 18.3666C14.8066 18.3666 15.5521 19.116 15.5521 20.0375C15.5521 20.9589 14.8066 21.7084 13.8904 21.7084Z" fill="#A3A3A3"/>
<path d="M24.0885 16.5911C22.1931 16.5911 20.6511 18.1371 20.6511 20.0375C20.6511 21.9379 22.1931 23.4838 24.0885 23.4838C25.9838 23.4838 27.5258 21.9378 27.5258 20.0375C27.5258 18.1372 25.9839 16.5911 24.0885 16.5911ZM24.0885 21.7084C23.1721 21.7084 22.4267 20.9589 22.4267 20.0375C22.4267 19.116 23.1722 18.3666 24.0885 18.3666C25.0049 18.3666 25.7502 19.116 25.7502 20.0375C25.7505 20.9588 25.005 21.7084 24.0885 21.7084Z" fill="#A3A3A3"/>
<path d="M34.2867 16.5911C32.3913 16.5911 30.8494 18.1371 30.8494 20.0375C30.8494 21.9379 32.3913 23.4838 34.2867 23.4838C36.1818 23.4838 37.7237 21.9378 37.7237 20.0375C37.7237 18.1372 36.1818 16.5911 34.2867 16.5911ZM34.2867 21.7084C33.3703 21.7084 32.6249 20.9589 32.6249 20.0375C32.6249 19.116 33.3704 18.3666 34.2867 18.3666C35.2029 18.3666 35.9481 19.116 35.9481 20.0375C35.9483 20.9588 35.2029 21.7084 34.2867 21.7084Z" fill="#A3A3A3"/>
<path d="M53.2324 27.4518H47.9269V8.53266C47.9269 4.63658 44.7833 1.46698 40.919 1.46698H7.2579C3.39366 1.46698 0.25 4.63658 0.25 8.53266V30.9281C0.25 34.8243 3.39366 37.9939 7.2579 37.9939H7.46464L10.124 42.6436C10.554 43.3957 11.3572 43.8632 12.2198 43.8632C13.0824 43.8632 13.8854 43.3959 14.3154 42.6437L16.975 37.9939H25.5015V47.6202C25.5015 50.4085 27.7524 52.6767 30.5189 52.6767H46.3613L48.0131 55.5648C48.3548 56.162 48.9926 56.5329 49.6779 56.5329C50.3631 56.5329 51.001 56.1619 51.3426 55.5648L52.9943 52.6767H53.2324C55.999 52.6767 58.2499 50.4085 58.2499 47.6202V32.5085C58.2499 29.7203 55.999 27.4518 53.2324 27.4518ZM16.4601 36.2184C16.1415 36.2184 15.8476 36.389 15.6895 36.6654L12.7741 41.7624C12.6594 41.963 12.4471 42.0876 12.22 42.0876C11.9927 42.0876 11.7803 41.963 11.6656 41.7623L8.75038 36.6654C8.59224 36.389 8.29816 36.2184 7.97984 36.2184H7.25802C4.37286 36.2184 2.02557 33.8453 2.02557 30.9281V8.53266C2.02557 5.61578 4.37275 3.24243 7.25802 3.24243H40.919C43.8042 3.24243 46.1515 5.61567 46.1515 8.53266V30.9281C46.1515 33.8453 43.8043 36.2184 40.919 36.2184H16.4601ZM56.4744 47.6203C56.4744 49.4294 55.02 50.9013 53.2324 50.9013H52.4794C52.1609 50.9013 51.8668 51.072 51.7087 51.3482L49.8014 54.6835C49.7491 54.7748 49.6064 54.7748 49.5543 54.6835L47.6469 51.3482C47.4888 51.0718 47.1947 50.9013 46.8762 50.9013H30.5189C28.7313 50.9013 27.2769 49.4296 27.2769 47.6203V37.994H40.9189C44.7832 37.994 47.9268 34.8244 47.9268 30.9282V29.2275H53.2323C55.0199 29.2275 56.4743 30.6994 56.4743 32.5087V47.6203H56.4744Z" fill="#A3A3A3"/>
</g>
<path d="M65.1875 8.56625L62.7194 11L65.1875 13.4338C65.2562 13.4981 65.311 13.5758 65.3484 13.6621C65.3859 13.7484 65.4052 13.8415 65.4052 13.9356C65.4052 14.0297 65.3859 14.1228 65.3484 14.2091C65.311 14.2955 65.2562 14.3732 65.1875 14.4375C65.1233 14.5012 65.0471 14.5516 64.9633 14.5858C64.8796 14.6201 64.7899 14.6374 64.6994 14.6369C64.5191 14.6361 64.3462 14.5645 64.2182 14.4375L61.75 11.9694L59.3163 14.4375C59.1882 14.5645 59.0154 14.6361 58.835 14.6369C58.7446 14.6374 58.6549 14.6201 58.5711 14.5858C58.4873 14.5516 58.4112 14.5012 58.3469 14.4375C58.2189 14.3087 58.147 14.1344 58.147 13.9528C58.147 13.7712 58.2189 13.5969 58.3469 13.4681L60.7807 11L58.3469 8.56625C58.2343 8.43473 58.1754 8.26556 58.1821 8.09253C58.1888 7.9195 58.2605 7.75537 58.383 7.63293C58.5054 7.51049 58.6695 7.43876 58.8426 7.43208C59.0156 7.42539 59.1848 7.48425 59.3163 7.59688L61.75 10.0306L64.1838 7.59688C64.2474 7.53097 64.3234 7.47825 64.4075 7.44172C64.4915 7.40518 64.5819 7.38556 64.6735 7.38396C64.7651 7.38237 64.8561 7.39883 64.9414 7.43241C65.0266 7.466 65.1044 7.51604 65.1704 7.57969C65.2363 7.64334 65.289 7.71935 65.3255 7.80338C65.362 7.8874 65.3817 7.9778 65.3833 8.06941C65.3849 8.16102 65.3684 8.25205 65.3348 8.3373C65.3012 8.42255 65.2512 8.50035 65.1875 8.56625ZM68.5563 17.8063C67.2102 19.1522 65.4952 20.0688 63.6281 20.4401C61.7611 20.8114 59.8259 20.6208 58.0672 19.8923C56.3085 19.1637 54.8053 17.9301 53.7478 16.3473C52.6902 14.7645 52.1257 12.9036 52.1257 11C52.1257 9.0964 52.6902 7.23554 53.7478 5.65274C54.8053 4.06994 56.3085 2.83628 58.0672 2.10776C59.8259 1.37924 61.7611 1.18857 63.6281 1.55987C65.4952 1.93118 67.2102 2.84777 68.5563 4.19375C69.4502 5.08753 70.1592 6.14863 70.643 7.31645C71.1267 8.48427 71.3757 9.73595 71.3757 11C71.3757 12.2641 71.1267 13.5157 70.643 14.6836C70.1592 15.8514 69.4502 16.9125 68.5563 17.8063ZM67.5869 5.16313C66.432 4.01221 64.9619 3.22932 63.3624 2.91331C61.7628 2.5973 60.1055 2.76235 58.5997 3.38762C57.0938 4.01288 55.8071 5.07032 54.9018 6.4264C53.9966 7.78249 53.5134 9.3764 53.5134 11.0069C53.5134 12.6374 53.9966 14.2313 54.9018 15.5874C55.8071 16.9434 57.0938 18.0009 58.5997 18.6261C60.1055 19.2514 61.7628 19.4165 63.3624 19.1004C64.9619 18.7844 66.432 18.0015 67.5869 16.8506C68.356 16.0842 68.9663 15.1734 69.3827 14.1706C69.7991 13.1678 70.0134 12.0927 70.0134 11.0069C70.0134 9.92106 69.7991 8.84593 69.3827 7.84313C68.9663 6.84032 68.356 5.92958 67.5869 5.16313Z" fill="#A3A3A3"/>
<defs>
<clipPath id="clip0_4304_61238">
<rect width="58" height="58" fill="white" transform="translate(0.25)"/>
</clipPath>
</defs>
</svg>
