<svg width="77" height="56" viewBox="0 0 77 56" fill="none" xmlns="http://www.w3.org/2000/svg">
<path d="M34.7625 34.3571C40.2959 25.6742 39.6003 26.7575 39.7597 26.5311C41.7743 23.6896 42.8391 20.3452 42.8391 16.8594C42.8391 7.61516 35.3376 0 26.0813 0C16.8552 0 9.32349 7.60013 9.32349 16.8594C9.32349 20.343 10.4106 23.7749 12.4912 26.6547L17.3999 34.3572C12.1517 35.1637 3.22974 37.5672 3.22974 42.8594C3.22974 44.7886 4.48891 47.5378 10.4876 49.6802C14.6762 51.1761 20.2141 52 26.0813 52C37.0526 52 48.9329 48.9052 48.9329 42.8594C48.9329 37.5662 40.0214 35.1653 34.7625 34.3571ZM15.0363 24.9788C15.0195 24.9526 15.002 24.927 14.9838 24.9018C13.2524 22.52 12.3704 19.6971 12.3704 16.8594C12.3704 9.24036 18.5053 3.04688 26.0813 3.04688C33.6415 3.04688 39.7922 9.2431 39.7922 16.8594C39.7922 19.7017 38.9268 22.4288 37.2891 24.7478C37.1424 24.9414 37.9081 23.7519 26.0813 42.3098L15.0363 24.9788ZM26.0813 48.9531C14.0975 48.9531 6.27661 45.4306 6.27661 42.8594C6.27661 41.1312 10.2952 38.2896 19.2002 37.1819L24.7965 45.9633C25.0762 46.4023 25.5607 46.668 26.0812 46.668C26.6017 46.668 27.0863 46.4022 27.3659 45.9633L32.9621 37.1819C41.8673 38.2896 45.886 41.1312 45.886 42.8594C45.886 45.4088 38.1354 48.9531 26.0813 48.9531Z" fill="#A3A3A3"/>
<path d="M26.0813 9.24219C21.8812 9.24219 18.4641 12.6593 18.4641 16.8594C18.4641 21.0595 21.8812 24.4766 26.0813 24.4766C30.2814 24.4766 33.6985 21.0595 33.6985 16.8594C33.6985 12.6593 30.2814 9.24219 26.0813 9.24219ZM26.0813 21.4297C23.5612 21.4297 21.511 19.3794 21.511 16.8594C21.511 14.3393 23.5612 12.2891 26.0813 12.2891C28.6014 12.2891 30.6516 14.3393 30.6516 16.8594C30.6516 19.3794 28.6014 21.4297 26.0813 21.4297Z" fill="#A3A3A3"/>
<g clip-path="url(#clip0_4304_61191)">
<path d="M76.6274 54.1417L70.7048 48.2191C72.1073 46.5058 72.9515 44.3188 72.9515 41.938C72.9515 36.4614 68.4959 32.0059 63.0193 32.0059C57.5427 32.0059 53.0872 36.4614 53.0872 41.938C53.0872 47.4146 57.5427 51.8702 63.0193 51.8702C65.4011 51.8702 67.5881 51.026 69.3004 49.6235L75.223 55.5461C75.4167 55.7398 75.6709 55.8371 75.9252 55.8371C76.1795 55.8371 76.4337 55.7398 76.6274 55.5461C77.0157 55.1577 77.0157 54.53 76.6274 54.1417ZM63.0193 49.8838C58.6382 49.8838 55.0736 46.3191 55.0736 41.938C55.0736 37.5569 58.6382 33.9923 63.0193 33.9923C67.4004 33.9923 70.9651 37.5569 70.9651 41.938C70.9651 46.3191 67.4004 49.8838 63.0193 49.8838ZM66.6952 39.6546L64.4178 41.9321L66.6952 44.2095C67.0836 44.5979 67.0836 45.2256 66.6952 45.6139C66.5015 45.8076 66.2473 45.9049 65.993 45.9049C65.7388 45.9049 65.4845 45.8076 65.2908 45.6139L63.0134 43.3365L60.7359 45.6139C60.5422 45.8076 60.288 45.9049 60.0337 45.9049C59.7795 45.9049 59.5252 45.8076 59.3315 45.6139C58.9432 45.2256 58.9432 44.5979 59.3315 44.2095L61.609 41.9321L59.3315 39.6546C58.9432 39.2663 58.9432 38.6386 59.3315 38.2502C59.7199 37.8619 60.3476 37.8619 60.7359 38.2502L63.0134 40.5277L65.2908 38.2502C65.6792 37.8619 66.3069 37.8619 66.6952 38.2502C67.0836 38.6386 67.0836 39.2663 66.6952 39.6546Z" fill="#A3A3A3"/>
</g>
<defs>
<clipPath id="clip0_4304_61191">
<rect width="23.8372" height="23.8372" fill="white" transform="translate(53.0813 32)"/>
</clipPath>
</defs>
</svg>
