<svg width="20" height="20" viewBox="0 0 20 20" fill="none" xmlns="http://www.w3.org/2000/svg">
<g id="fi_4305518">
<g id="Group">
<path id="Vector" d="M3.75 12.4277C3.92259 12.4277 4.0625 12.2878 4.0625 12.1152C4.0625 11.9426 3.92259 11.8027 3.75 11.8027C3.57741 11.8027 3.4375 11.9426 3.4375 12.1152C3.4375 12.2878 3.57741 12.4277 3.75 12.4277Z" fill="white"/>
<path id="Vector_2" d="M10 8.67773C8.10457 8.67773 6.5625 10.2198 6.5625 12.1152C6.5625 14.0107 8.10457 15.5527 10 15.5527C11.8954 15.5527 13.4375 14.0107 13.4375 12.1152C13.4375 10.2198 11.8954 8.67773 10 8.67773ZM10.0154 11.8028C10.6976 11.8111 11.25 12.3686 11.25 13.0527C11.25 13.6135 10.8788 14.0892 10.3693 14.2471C10.3359 14.2574 10.3125 14.2873 10.3125 14.3222V14.6045C10.3125 14.771 10.1869 14.9163 10.0208 14.9271C9.83883 14.9389 9.6875 14.7947 9.6875 14.6152V14.3235C9.6875 14.2891 9.66574 14.2579 9.63289 14.2477C9.12934 14.0927 8.76043 13.6275 8.7502 13.0762C8.74699 12.9023 8.87488 12.748 9.04859 12.7405C9.2275 12.7328 9.37496 12.8756 9.37496 13.0527C9.37496 13.4073 9.67168 13.6938 10.0298 13.677C10.3478 13.6621 10.6094 13.4005 10.6243 13.0826C10.641 12.7245 10.3545 12.4277 9.99996 12.4277C9.3107 12.4277 8.74996 11.867 8.74996 11.1777C8.74996 10.617 9.12113 10.1413 9.63066 9.9834C9.66402 9.97305 9.68746 9.94316 9.68746 9.90824V9.62594C9.68746 9.45949 9.81305 9.31418 9.97914 9.3034C10.1611 9.2916 10.3125 9.43574 10.3125 9.61523V9.90699C10.3125 9.94137 10.3342 9.97262 10.3671 9.98273C10.8706 10.1377 11.2395 10.6029 11.2498 11.1543C11.253 11.3281 11.1251 11.4824 10.9514 11.4899C10.7725 11.4977 10.625 11.3549 10.625 11.1777C10.625 10.8331 10.3446 10.5527 10 10.5527C9.65316 10.5527 9.37137 10.8368 9.37504 11.1845C9.37867 11.5294 9.67047 11.7986 10.0154 11.8028Z" fill="white"/>
<path id="Vector_3" d="M19.0625 6.80273H0.9375C0.420586 6.80273 0 7.22332 0 7.74023V16.4902C0 17.0071 0.420586 17.4277 0.9375 17.4277H19.0625C19.5794 17.4277 20 17.0071 20 16.4902V7.74023C20 7.22328 19.5794 6.80273 19.0625 6.80273ZM6.5625 16.1777H2.5C2.32828 16.1777 2.18687 16.0392 2.1875 15.8675C2.18875 15.5211 1.90664 15.239 1.56023 15.2402C1.38852 15.2409 1.25 15.0995 1.25 14.9277V9.30273C1.25 9.13102 1.38852 8.98961 1.56023 8.99023C1.90664 8.99148 2.18875 8.70938 2.1875 8.36297C2.18687 8.19125 2.32828 8.05273 2.5 8.05273H6.5518C6.71824 8.05273 6.86355 8.17832 6.87434 8.34441C6.88613 8.52641 6.74199 8.67773 6.5625 8.67773H2.86016C2.80969 8.67773 2.76516 8.71016 2.74926 8.75809C2.6252 9.13191 2.32914 9.42797 1.95535 9.55199C1.90742 9.56789 1.875 9.61242 1.875 9.66289V14.5675C1.875 14.618 1.90742 14.6625 1.95535 14.6784C2.32918 14.8025 2.62523 15.0986 2.74926 15.4723C2.76516 15.5202 2.80969 15.5527 2.86016 15.5527H6.55176C6.7182 15.5527 6.86352 15.6783 6.8743 15.8444C6.88613 16.0264 6.74195 16.1777 6.5625 16.1777ZM4.6875 12.1152C4.6875 12.6321 4.26691 13.0527 3.75 13.0527C3.23309 13.0527 2.8125 12.6321 2.8125 12.1152C2.8125 11.5983 3.23309 11.1777 3.75 11.1777C4.26691 11.1777 4.6875 11.5983 4.6875 12.1152ZM10 16.1777C7.75992 16.1777 5.9375 14.3553 5.9375 12.1152C5.9375 9.87516 7.75992 8.05273 10 8.05273C12.2401 8.05273 14.0625 9.87516 14.0625 12.1152C14.0625 14.3553 12.2401 16.1777 10 16.1777ZM18.75 14.9277C18.75 15.0995 18.6115 15.2409 18.4398 15.2402C18.0934 15.239 17.8112 15.5211 17.8125 15.8675C17.8131 16.0392 17.6717 16.1777 17.5 16.1777H13.4482C13.2818 16.1777 13.1364 16.0521 13.1257 15.8861C13.1139 15.7041 13.258 15.5527 13.4375 15.5527H17.1398C17.1903 15.5527 17.2348 15.5203 17.2507 15.4724C17.3748 15.0986 17.6709 14.8025 18.0446 14.6785C18.0925 14.6626 18.125 14.618 18.125 14.5676V9.66289C18.125 9.61242 18.0926 9.56789 18.0446 9.55199C17.6708 9.42793 17.3748 9.13187 17.2507 8.75809C17.2348 8.71019 17.1903 8.67773 17.1398 8.67773H13.4482C13.2818 8.67773 13.1365 8.55215 13.1257 8.38605C13.1139 8.20406 13.258 8.05273 13.4375 8.05273H17.5C17.6718 8.05273 17.8132 8.19125 17.8125 8.36297C17.8113 8.70938 18.0934 8.99148 18.4398 8.99023C18.6115 8.98961 18.75 9.13102 18.75 9.30273V14.9277H18.75ZM15.3125 12.1152C15.3125 11.5983 15.7331 11.1777 16.25 11.1777C16.7669 11.1777 17.1875 11.5983 17.1875 12.1152C17.1875 12.6321 16.7669 13.0527 16.25 13.0527C15.7331 13.0527 15.3125 12.6321 15.3125 12.1152Z" fill="white"/>
<path id="Vector_4" d="M16.25 12.4277C16.4226 12.4277 16.5625 12.2878 16.5625 12.1152C16.5625 11.9426 16.4226 11.8027 16.25 11.8027C16.0774 11.8027 15.9375 11.9426 15.9375 12.1152C15.9375 12.2878 16.0774 12.4277 16.25 12.4277Z" fill="white"/>
<path id="Vector_5" d="M18.8261 5.20492C18.7618 4.68828 18.2883 4.32078 17.766 4.39281L5.82821 6.10023C5.7802 6.10711 5.78524 6.17797 5.83376 6.17797H18.8591C18.9061 6.17797 18.9425 6.13679 18.9367 6.09015L18.8261 5.20492Z" fill="white"/>
<path id="Vector_6" d="M17.076 3.85998C17.1218 3.85342 17.1516 3.8087 17.1404 3.76377L17.0199 3.28174C16.8934 2.77389 16.3756 2.46694 15.8637 2.60479L6.04017 5.35979C5.99322 5.37295 6.00771 5.44299 6.05599 5.43608C8.52458 5.08307 15.2584 4.12022 17.076 3.85998Z" fill="white"/>
</g>
</g>
</svg>
