<svg width="20" height="20" viewBox="0 0 20 20" fill="none" xmlns="http://www.w3.org/2000/svg">
<g id="fi_2838816" clip-path="url(#clip0_4214_819)">
<g id="Group">
<path id="Vector" d="M1.75781 20H10C10.9693 20 11.7578 19.2115 11.7578 18.2422V15.2734H7.65625C6.68695 15.2734 5.89844 14.4849 5.89844 13.5156V5.3125C5.89844 4.3432 6.68695 3.55469 7.65625 3.55469H11.7578V1.75781C11.7578 0.788516 10.9693 0 10 0H1.75781C0.788516 0 0 0.788516 0 1.75781V18.2422C0 19.2115 0.788516 20 1.75781 20ZM5.89844 1.75781C6.22203 1.75781 6.48438 2.05914 6.48438 2.38281C6.48438 2.70641 6.22203 2.96875 5.89844 2.96875C5.57484 2.96875 5.3125 2.70641 5.3125 2.38281C5.3125 2.05914 5.57484 1.75781 5.89844 1.75781ZM5.3125 16.4453H6.48438C6.80824 16.4453 7.07031 16.7074 7.07031 17.0312C7.07031 17.3551 6.80824 17.6172 6.48438 17.6172H5.3125C4.98863 17.6172 4.72656 17.3551 4.72656 17.0312C4.72656 16.7074 4.98863 16.4453 5.3125 16.4453Z" fill="white"/>
<path id="Vector_2" d="M19.4141 4.72656H7.65625C7.33238 4.72656 7.07031 4.98863 7.07031 5.3125V7.07031H20V5.3125C20 4.98863 19.7379 4.72656 19.4141 4.72656Z" fill="white"/>
<path id="Vector_3" d="M7.07031 13.5156C7.07031 13.8395 7.33238 14.1016 7.65625 14.1016H19.4141C19.7379 14.1016 20 13.8395 20 13.5156V8.24219H7.07031V13.5156ZM15.8594 9.41406H17.0312C17.3551 9.41406 17.6172 9.67613 17.6172 10C17.6172 10.3239 17.3551 10.5859 17.0312 10.5859H15.8594C15.5355 10.5859 15.2734 10.3239 15.2734 10C15.2734 9.67613 15.5355 9.41406 15.8594 9.41406Z" fill="white"/>
</g>
</g>
<defs>
<clipPath id="clip0_4214_819">
<rect width="20" height="20" fill="white"/>
</clipPath>
</defs>
</svg>
