<svg width="78" height="60" viewBox="0 0 78 60" fill="none" xmlns="http://www.w3.org/2000/svg">
<path d="M40.8313 52.5C45.6558 52.5 49.5813 48.5745 49.5813 43.75V12.25C49.5813 7.42554 45.6558 3.5 40.8313 3.5H16.3313C11.5068 3.5 7.5813 7.42554 7.5813 12.25V43.75C7.5813 48.5745 11.5068 52.5 16.3313 52.5H40.8313ZM11.0813 12.25C11.0813 9.35498 13.4363 7 16.3313 7H40.8313C43.7263 7 46.0813 9.35498 46.0813 12.25V43.75C46.0813 46.645 43.7263 49 40.8313 49H16.3313C13.4363 49 11.0813 46.645 11.0813 43.75V12.25Z" fill="#A3A3A3"/>
<path d="M25.0813 29.75H39.0813C40.0486 29.75 40.8313 28.9664 40.8313 28C40.8313 27.0336 40.0486 26.25 39.0813 26.25H25.0813C24.114 26.25 23.3313 27.0336 23.3313 28C23.3313 28.9664 24.114 29.75 25.0813 29.75Z" fill="#A3A3A3"/>
<path d="M25.0813 21H39.0813C40.0486 21 40.8313 20.2164 40.8313 19.25C40.8313 18.2836 40.0486 17.5 39.0813 17.5H25.0813C24.114 17.5 23.3313 18.2836 23.3313 19.25C23.3313 20.2164 24.114 21 25.0813 21Z" fill="#A3A3A3"/>
<path d="M25.0813 38.5H39.0813C40.0486 38.5 40.8313 37.7164 40.8313 36.75C40.8313 35.7836 40.0486 35 39.0813 35H25.0813C24.114 35 23.3313 35.7836 23.3313 36.75C23.3313 37.7164 24.114 38.5 25.0813 38.5Z" fill="#A3A3A3"/>
<path d="M18.1155 21C19.0828 21 19.8655 20.2164 19.8655 19.25C19.8655 18.2836 19.0828 17.5 18.1155 17.5H18.0984C17.1328 17.5 16.3569 18.2836 16.3569 19.25C16.3569 20.2164 17.1499 21 18.1155 21Z" fill="#A3A3A3"/>
<path d="M18.1155 29.75C19.0828 29.75 19.8655 28.9664 19.8655 28C19.8655 27.0336 19.0828 26.25 18.1155 26.25H18.0984C17.1328 26.25 16.3569 27.0336 16.3569 28C16.3569 28.9664 17.1499 29.75 18.1155 29.75Z" fill="#A3A3A3"/>
<path d="M18.1155 38.5C19.0828 38.5 19.8655 37.7164 19.8655 36.75C19.8655 35.7836 19.0828 35 18.1155 35H18.0984C17.1328 35 16.3569 35.7836 16.3569 36.75C16.3569 37.7164 17.1499 38.5 18.1155 38.5Z" fill="#A3A3A3"/>
<g clip-path="url(#clip0_4304_61190)">
<path d="M77.1274 58.1417L71.2048 52.2191C72.6073 50.5058 73.4515 48.3188 73.4515 45.938C73.4515 40.4614 68.9959 36.0059 63.5193 36.0059C58.0427 36.0059 53.5872 40.4614 53.5872 45.938C53.5872 51.4146 58.0427 55.8702 63.5193 55.8702C65.9011 55.8702 68.0881 55.026 69.8004 53.6235L75.723 59.5461C75.9167 59.7398 76.1709 59.8371 76.4252 59.8371C76.6795 59.8371 76.9337 59.7398 77.1274 59.5461C77.5157 59.1577 77.5157 58.53 77.1274 58.1417ZM63.5193 53.8838C59.1382 53.8838 55.5736 50.3191 55.5736 45.938C55.5736 41.5569 59.1382 37.9923 63.5193 37.9923C67.9004 37.9923 71.4651 41.5569 71.4651 45.938C71.4651 50.3191 67.9004 53.8838 63.5193 53.8838ZM67.1952 43.6546L64.9178 45.9321L67.1952 48.2095C67.5836 48.5979 67.5836 49.2256 67.1952 49.6139C67.0015 49.8076 66.7473 49.9049 66.493 49.9049C66.2388 49.9049 65.9845 49.8076 65.7908 49.6139L63.5134 47.3365L61.2359 49.6139C61.0422 49.8076 60.788 49.9049 60.5337 49.9049C60.2795 49.9049 60.0252 49.8076 59.8315 49.6139C59.4432 49.2256 59.4432 48.5979 59.8315 48.2095L62.109 45.9321L59.8315 43.6546C59.4432 43.2663 59.4432 42.6386 59.8315 42.2502C60.2199 41.8619 60.8476 41.8619 61.2359 42.2502L63.5134 44.5277L65.7908 42.2502C66.1792 41.8619 66.8069 41.8619 67.1952 42.2502C67.5836 42.6386 67.5836 43.2663 67.1952 43.6546Z" fill="#A3A3A3"/>
</g>
<defs>
<clipPath id="clip0_4304_61190">
<rect width="23.8372" height="23.8372" fill="white" transform="translate(53.5813 36)"/>
</clipPath>
</defs>
</svg>
